# AST/ASF file generated using VICON BodyLanguage
# -----------------------------------------------
:version 1.10
:name VICON
:units
  mass 1.0
  length 0.45
  angle deg
:documentation
   .ast/.asf automatically generated from VICON data using
   VICON BodyBuilder and BodyLanguage model FoxedUp or BRILLIANT.MOD
:root
   order TX TY TZ RX RY RZ
   axis XYZ
   position 0 0 0  
   orientation 0 0 0 
:bonedata
  begin
     id 1 
     name lhipjoint
     direction 0.661853 -0.702389 0.261917 
     length 2.64193 
     axis 0 0 0  XYZ
  end
  begin
     id 2 
     name lfemur
     direction 0.34202 -0.939693 0  
     length 7.01722  
     axis 0 0 20  XYZ
    dof rx ry rz
    limits (-160.0 20.0)
           (-70.0 70.0)
           (-60.0 70.0)
  end
  begin
     id 3 
     name ltibia
     direction 0.34202 -0.939693 0   
     length 8.25008   
     axis 0 0 20   XYZ
    dof rx
    limits (-10.0 170.0)
  end
  begin
     id 4 
     name lfoot
     direction 0.0709916 -0.195048 0.978221   
     length 2.31941   
     axis -90 7.62852e-016 20   XYZ
    dof rx rz
    limits (-45.0 90.0)
           (-70.0 20.0)
  end
  begin
     id 5 
     name ltoes
     direction 1.53586e-011 -4.22017e-011 1   
     length 1.16486   
     axis -90 7.62852e-016 20   XYZ
    dof rx
    limits (-90.0 20.0)
  end
  begin
     id 6 
     name rhipjoint
     direction -0.638185 -0.721362 0.268992   
     length 2.57244  
     axis 0 0 0  XYZ 
  end
  begin
     id 7 
     name rfemur
     direction -0.34202 -0.939693 0   
     length 7.07017   
     axis 0 0 -20   XYZ
    dof rx ry rz
    limits (-160.0 20.0)
           (-70.0 70.0)
           (-70.0 60.0)
  end
  begin
     id 8 
     name rtibia
     direction -0.34202 -0.939693 0   
     length 8.20386   
     axis 0 0 -20   XYZ
    dof rx
    limits (-10.0 170.0)
 end
 begin
     id 9 
     name rfoot
     direction -0.0822429 -0.225961 0.970658   
     length 2.32215  
     axis -90 -7.62852e-016 -20   XYZ
    dof rx rz
    limits (-45.0 90.0)
           (-20.0 70.0)
  end
  begin
     id 10 
     name rtoes
     direction -1.53597e-011 -4.21689e-011 1   
     length 1.16333   
     axis -90 -7.62852e-016 -20   XYZ
    dof rx
    limits (-90.0 20.0)
  end
  begin
     id 11 
     name lowerback
     direction -0.0131557 0.998589 -0.0514484   
     length 2.14993   
     axis 0 0 0   XYZ
    dof rx ry rz
    limits (-20.0 45.0)
           (-30.0 30.0)
           (-30.0 30.0)
  end
  begin
     id 12 
     name upperback
     direction -0.000776481 0.999993 0.00352685   
     length 2.15301   
     axis 0 0 0   XYZ
    dof rx ry rz
    limits (-20.0 45.0)
           (-30.0 30.0)
           (-30.0 30.0)
  end
  begin
     id 13 
     name thorax
     direction 0.00438186 0.999609 0.0276143   
     length 2.15424   
     axis 0 0 0   XYZ
    dof rx ry rz
    limits (-20.0 45.0)
           (-30.0 30.0)
           (-30.0 30.0)
  end
  begin
     id 14 
     name lowerneck
     direction -0.0488006 0.998094 0.0377807   
     length 1.90481   
     axis 0 0 0   XYZ
    dof rx ry rz
    limits (-20.0 45.0)
           (-30.0 30.0)
           (-30.0 30.0)
  end
  begin
     id 15 
     name upperneck
     direction 0.0443769 0.990702 -0.12861   
     length 1.91305   
     axis 0 0 0   XYZ
    dof rx ry rz
    limits (-20.0 45.0)
           (-30.0 30.0)
           (-30.0 30.0)
  end
  begin
     id 16
     name head
     direction 0.0165599 0.998647 -0.0492982  
     length 1.92369  
     axis 0 0 0   XYZ
    dof rx ry rz
    limits (-20.0 45.0)
           (-30.0 30.0)
           (-30.0 30.0)
  end
  begin
     id 17 
     name lclavicle
     direction 0.911936 0.410197 -0.0105506  
     length 3.52622  
     axis 0 0 0   XYZ
    dof ry rz
    limits (-20.0 10.0)
           (0.0 20.0)
  end
  begin
     id 18 
     name lhumerus
     direction 1 -4.48974e-011 -2.48591e-028   
     length 5.47651   
     axis 180 -30 -90   XYZ
    dof rx ry rz
    limits (-60.0 90.0)
           (-90.0 90.0)
           (-90.0 90.0)
  end
  begin
     id 19
     name lradius
     direction 1 -4.48938e-011 -4.40099e-027   
     length 3.09058   
     axis 180 -30 -90   XYZ
    dof rx
    limits (-10.0 170.0)
  end
  begin
     id 20
     name lwrist
     direction 1 -4.49042e-011 -2.99852e-027   
     length 1.54529   
     axis 1.95339e-015 90 90   XYZ
    dof ry
    limits (-180.0 0.0)
 end
  begin
     id 21 
     name lhand
     direction 1 -4.48815e-011 -5.98193e-027   
     length 0.771611   
     axis 3.82337e-015 90 90   XYZ
    dof rx rz
    limits (-90.0 90.0)
           (-45.0 45.0)
  end
  begin
     id 22 
     name lfingers
     direction 1 -4.49034e-011 -1.1993e-026   
     length 0.622093   
     axis 7.64668e-015 90 90   XYZ
    dof rx
    limits (0.0 90.0)
  end
  begin
     id 23
     name lthumb
     direction 0.707107 -6.34867e-011 0.707107   
     length 0.893204   
     axis -90 45 -1.62303e-014   XYZ
    dof rx rz
    limits (-45.0 45.0)
           (-45.0 45.0)
  end
  begin
     id 24 
     name rclavicle
     direction -0.93442 0.355634 -0.0195692   
     length 3.62463  
     axis 0 0 0   XYZ 
    dof ry rz
    limits (-10.0 20.0)
           (-20.0 0.0)
  end
  begin
     id 25 
     name rhumerus
     direction -1 -4.48957e-011 -1.19147e-027  
     length 5.14182   
     axis 180 30 90   XYZ
    dof rx ry rz
    limits (-90.0 60.0)
           (-90.0 90.0)
           (-90.0 90.0)
  end
  begin
     id 26 
     name rradius
     direction -1 -4.48952e-011 -3.81062e-027   
     length 3.35565   
     axis 180 30 90   XYZ
    dof rx
    limits (-10.0 170.0)
  end
  begin
     id 27 
     name rwrist
     direction -1 -4.48973e-011 -2.99621e-027   
     length 1.67782   
     axis 1.95339e-015 -90 -90   XYZ
    dof ry
    limits (-180.0 0.0)
  end
  begin
     id 28
     name rhand
     direction -1 -4.48895e-011 -5.98727e-027   
     length 0.801042   
     axis 3.82337e-015 -90 -90   XYZ
    dof rx rz
    limits (-90.0 90.0)
           (-45.0 45.0)
  end
  begin
     id 29
     name rfingers
     direction -1 -4.49065e-011 -1.19972e-026   
     length 0.645821   
     axis 7.64668e-015 -90 -90   XYZ
    dof rx
    limits (0.0 90.0)
  end
  begin
     id 30
     name rthumb
     direction -0.707107 -6.34957e-011 0.707107   
     length 0.927273   
     axis -90 -45 1.62303e-014   XYZ
    dof rx rz
    limits (-45.0 45.0)
           (-45.0 45.0)
  end
:hierarchy
  begin
    root lhipjoint rhipjoint lowerback
    lhipjoint lfemur
    lfemur ltibia
    ltibia lfoot
    lfoot ltoes
    rhipjoint rfemur
    rfemur rtibia
    rtibia rfoot
    rfoot rtoes
    lowerback upperback
    upperback thorax
    thorax lowerneck lclavicle rclavicle
    lowerneck upperneck
    upperneck head
    lclavicle lhumerus
    lhumerus lradius
    lradius lwrist
    lwrist lhand lthumb
    lhand lfingers
    rclavicle rhumerus
    rhumerus rradius
    rradius rwrist
    rwrist rhand rthumb
    rhand rfingers
  end

#!OML:ASF E:\Style4\Style4.ASF
:FULLY-SPECIFIED
:DEGREES
673
root 0.747009 17.068 -1.15007 3.81778 -19.3441 3.48321
lowerback 15.5146 0.807007 -2.056
upperback 6.7256 0.714294 0.468673
thorax -1.60071 0.284257 1.53476
lowerneck 2.12952 -6.88028 -6.64481
upperneck -1.98993 -9.28147 4.74538
head -0.429535 -4.6517 2.69104
rclavicle -3.97569e-015 1.15295e-014
rhumerus -12.6246 15.7175 -84.2443
rradius 125.64
rwrist 24.0423
rhand 27.4788 -5.8201
rfingers 7.12502
rthumb 51.4266 -26.2602
lclavicle -3.97569e-015 1.15295e-014
lhumerus -6.37307 -27.8775 82.4982
lradius 125.955
lwrist -15.0496
lhand 20.8488 41.9963
lfingers 7.12502
lthumb 45.3249 65.3667
rfemur -33.7261 7.51422 12.267
rtibia 49.4149
rfoot -19.6655 -8.97946
rtoes -17.8171
lfemur -26.6022 9.85231 -24.2682
ltibia 48.5486
lfoot -27.4604 14.0446
ltoes -13.6488
674
root 0.747817 17.1186 -1.13868 4.05096 -19.4358 3.48306
lowerback 15.288 0.822553 -2.07179
upperback 6.62307 0.73961 0.502675
thorax -1.59067 0.297683 1.57621
lowerneck 1.86559 -6.8915 -6.66975
upperneck -1.69318 -9.28627 4.6648
head -0.292507 -4.65265 2.64829
rclavicle -2.06736e-014 2.78299e-014
rhumerus -12.8007 15.7683 -84.0716
rradius 125.982
rwrist 23.9159
rhand 27.359 -5.67809
rfingers 7.12502
rthumb 51.3177 -26.1804
lclavicle -2.06736e-014 2.78299e-014
lhumerus -6.67256 -27.9319 82.5355
lradius 126.307
lwrist -14.909
lhand 20.6414 41.7814
lfingers 7.12502
lthumb 45.1321 65.2288
rfemur -33.4936 7.56342 12.211
rtibia 48.5785
rfoot -19.2873 -9.09929
rtoes -19.1399
lfemur -26.3193 9.79808 -24.3141
ltibia 47.6391
lfoot -27.0425 14.2253
ltoes -13.6783
675
root 0.750492 17.1687 -1.12668 4.24802 -19.5461 3.5362
lowerback 15.048 0.848607 -2.07333
upperback 6.53581 0.779245 0.480997
thorax -1.55706 0.318773 1.54928
lowerneck 1.62915 -6.90054 -6.66823
upperneck -1.40354 -9.28784 4.65814
head -0.160417 -4.65312 2.62714
rclavicle -1.47101e-014 3.18055e-015
rhumerus -12.9303 15.7183 -83.8959
rradius 126.239
rwrist 23.6296
rhand 27.1162 -5.33173
rfingers 7.12502
rthumb 51.0966 -25.9591
lclavicle -1.47101e-014 3.18055e-015
lhumerus -6.86687 -28.03 82.4549
lradius 126.644
lwrist -14.7598
lhand 20.5212 41.7116
lfingers 7.12502
lthumb 45.0203 65.2032
rfemur -33.2302 7.53694 12.112
rtibia 47.7432
rfoot -18.8698 -9.05444
rtoes -20.1562
lfemur -26.006 9.7544 -24.4225
ltibia 46.727
lfoot -26.7432 14.4201
ltoes -13.9808
676
root 0.753437 17.216 -1.11485 4.45244 -19.6397 3.53785
lowerback 14.8325 0.851156 -1.99831
upperback 6.42244 0.797956 0.461159
thorax -1.56199 0.331411 1.48427
lowerneck 1.53172 -6.87618 -6.68968
upperneck -1.20793 -9.25247 4.65173
head -0.0831789 -4.63557 2.61977
rclavicle 1.17283e-014 -1.98785e-015
rhumerus -13.0264 15.7037 -83.7626
rradius 126.448
rwrist 23.3567
rhand 26.8364 -5.18016
rfingers 7.12502
rthumb 50.8416 -25.9495
lclavicle 1.17283e-014 -1.98785e-015
lhumerus -7.06336 -28.1368 82.3346
lradius 126.992
lwrist -14.5797
lhand 20.3179 41.6882
lfingers 7.12502
lthumb 44.8311 65.254
rfemur -32.9522 7.51399 12.0633
rtibia 46.8977
rfoot -18.4744 -8.7475
rtoes -19.8001
lfemur -25.6862 9.747 -24.4814
ltibia 45.8331
lfoot -26.448 14.4908
ltoes -13.8864
677
root 0.755949 17.2597 -1.10632 4.67257 -19.7373 3.53427
lowerback 14.6237 0.85947 -1.97611
upperback 6.29521 0.817464 0.461147
thorax -1.58548 0.343624 1.46967
lowerneck 1.43399 -6.84133 -6.6354
upperneck -0.999644 -9.20236 4.56418
head -0.0106136 -4.61042 2.57261
rclavicle 2.5842e-015 3.18055e-014
rhumerus -13.0973 15.7291 -83.6075
rradius 126.713
rwrist 23.1805
rhand 26.5775 -5.18347
rfingers 7.12502
rthumb 50.6054 -26.0824
lclavicle 2.5842e-015 3.18055e-014
lhumerus -7.23167 -28.1889 82.233
lradius 127.333
lwrist -14.413
lhand 20.0484 41.7477
lfingers 7.12502
lthumb 44.5802 65.4107
rfemur -32.7299 7.54207 12.0059
rtibia 46.053
rfoot -18.1618 -8.58856
rtoes -19.4164
lfemur -25.4238 9.69613 -24.5238
ltibia 44.9973
lfoot -26.2029 14.4788
ltoes -13.1083
678
root 0.758877 17.3011 -1.09846 4.92542 -19.837 3.52462
lowerback 14.3547 0.873272 -1.96317
upperback 6.18846 0.844489 0.471321
thorax -1.55563 0.358562 1.4705
lowerneck 1.29167 -6.82783 -6.55884
upperneck -0.803098 -9.17747 4.49667
head 0.0672815 -4.59766 2.52635
rclavicle 3.69739e-014 -2.3059e-014
rhumerus -13.1381 15.7365 -83.422
rradius 126.978
rwrist 23.0199
rhand 26.3028 -5.11482
rfingers 7.12502
rthumb 50.3545 -26.1494
lclavicle 3.69739e-014 -2.3059e-014
lhumerus -7.3038 -28.1888 82.1101
lradius 127.622
lwrist -14.235
lhand 19.8962 41.7229
lfingers 7.12502
lthumb 44.4384 65.4403
rfemur -32.5509 7.50332 11.9635
rtibia 45.2139
rfoot -17.8729 -8.49179
rtoes -19.7307
lfemur -25.2563 9.56635 -24.5596
ltibia 44.2541
lfoot -26.0283 14.5904
ltoes -12.6032
679
root 0.761206 17.3399 -1.09107 5.14828 -19.9212 3.49614
lowerback 14.1534 0.892498 -1.92762
upperback 6.09186 0.879849 0.483553
thorax -1.55099 0.377975 1.45904
lowerneck 1.13058 -6.82736 -6.45661
upperneck -0.624168 -9.16847 4.42294
head 0.142087 -4.5926 2.47322
rclavicle -4.96962e-015 5.56597e-015
rhumerus -13.1587 15.6571 -83.2747
rradius 127.214
rwrist 23.0028
rhand 25.9766 -4.9213
rfingers 7.12502
rthumb 50.0563 -26.1144
lclavicle -4.96962e-015 5.56597e-015
lhumerus -7.29439 -28.2238 81.9287
lradius 127.908
lwrist -14.002
lhand 19.765 41.6737
lfingers 7.12502
lthumb 44.3161 65.4376
rfemur -32.3429 7.43117 11.9665
rtibia 44.4126
rfoot -17.4111 -8.31265
rtoes -19.7469
lfemur -25.1305 9.46853 -24.5687
ltibia 43.6088
lfoot -25.8257 14.7583
ltoes -12.4664
680
root 0.762872 17.3771 -1.08345 5.45369 -19.9789 3.30572
lowerback 13.9104 0.885807 -1.76621
upperback 5.98414 0.899484 0.552956
thorax -1.53413 0.390807 1.43903
lowerneck 1.03863 -6.80359 -6.39957
upperneck -0.476391 -9.13274 4.33539
head 0.195103 -4.57444 2.42786
rclavicle -3.39922e-014 2.34566e-014
rhumerus -13.0903 15.5574 -83.1431
rradius 127.391
rwrist 23.0218
rhand 25.6588 -4.56673
rfingers 7.12502
rthumb 49.7653 -25.9118
lclavicle -3.39922e-014 2.34566e-014
lhumerus -7.2695 -28.2304 81.7681
lradius 128.171
lwrist -13.8541
lhand 19.6451 41.6168
lfingers 7.12502
lthumb 44.2043 65.4231
rfemur -32.1955 7.42167 12.1284
rtibia 43.6724
rfoot -17.0374 -8.18357
rtoes -19.5824
lfemur -25.1077 9.37368 -24.4096
ltibia 43.0586
lfoot -25.6462 14.9321
ltoes -12.4206
681
root 0.763677 17.4094 -1.07768 5.73619 -20.0329 3.207
lowerback 13.6652 0.902043 -1.69543
upperback 5.86891 0.936796 0.599361
thorax -1.52507 0.411509 1.44359
lowerneck 1.01843 -6.79471 -6.38039
upperneck -0.361256 -9.12093 4.28957
head 0.230913 -4.56884 2.40624
rclavicle 4.6118e-014 -2.54444e-014
rhumerus -12.9616 15.3201 -82.9465
rradius 127.541
rwrist 22.972
rhand 25.4942 -4.04916
rfingers 7.12502
rthumb 49.6145 -25.472
lclavicle 4.6118e-014 -2.54444e-014
lhumerus -7.25856 -28.2409 81.6391
lradius 128.441
lwrist -13.7713
lhand 19.6476 41.5385
lfingers 7.12502
lthumb 44.2067 65.3439
rfemur -32.1196 7.39583 12.1829
rtibia 43.0266
rfoot -16.833 -8.00699
rtoes -19.1471
lfemur -25.1307 9.24465 -24.3503
ltibia 42.5825
lfoot -25.4724 15.1911
ltoes -12.6555
682
root 0.765409 17.434 -1.07456 5.97375 -20.043 3.18196
lowerback 13.4628 0.902251 -1.69308
upperback 5.77096 0.943335 0.63936
thorax -1.52008 0.415814 1.48439
lowerneck 0.91125 -6.78279 -6.38017
upperneck -0.249928 -9.10027 4.25749
head 0.281516 -4.55812 2.38908
rclavicle -2.68359e-014 9.93923e-015
rhumerus -12.7824 15.1691 -82.7251
rradius 127.701
rwrist 22.8933
rhand 25.3557 -3.87021
rfingers 7.12502
rthumb 49.4875 -25.3579
lclavicle -2.68359e-014 9.93923e-015
lhumerus -7.24766 -28.2045 81.5009
lradius 128.729
lwrist -13.6527
lhand 19.5012 41.3663
lfingers 7.12502
lthumb 44.0701 65.2229
rfemur -32.0677 7.26943 12.1852
rtibia 42.4772
rfoot -16.5556 -7.96275
rtoes -19.7747
lfemur -25.1617 9.07283 -24.3521
ltibia 42.1797
lfoot -25.3714 15.2386
ltoes -12.3311
683
root 0.768783 17.4541 -1.07264 6.18856 -20.0062 3.06428
lowerback 13.3263 0.879674 -1.55938
upperback 5.68861 0.934599 0.688992
thorax -1.53178 0.414093 1.46276
lowerneck 0.710453 -6.79735 -6.31971
upperneck -0.0359304 -9.11015 4.17434
head 0.376579 -4.56237 2.33823
rclavicle 5.04913e-014 -3.22031e-014
rhumerus -12.6439 15.1426 -82.5834
rradius 127.924
rwrist 22.9057
rhand 25.0804 -4.17628
rfingers 7.12502
rthumb 49.235 -25.7916
lclavicle 5.04913e-014 -3.22031e-014
lhumerus -7.22995 -28.2121 81.3767
lradius 128.97
lwrist -13.5371
lhand 19.2916 41.1806
lfingers 7.12502
lthumb 43.8746 65.11
rfemur -32.0037 7.17325 12.2822
rtibia 42.045
rfoot -16.3121 -7.94432
rtoes -20.6111
lfemur -25.1778 8.92293 -24.2545
ltibia 41.8526
lfoot -25.3185 15.2171
ltoes -11.7291
